<mxfile host="app.diagrams.net" agent="Mozilla/5.0 (Windows NT 10.0; Win64; x64) AppleWebKit/537.36 (KHTML, like Gecko) Chrome/138.0.0.0 Safari/537.36" version="28.1.0">
  <diagram name="หน้า-1" id="YeD2-zbvNSz4BnXHVZ-j">
    <mxGraphModel dx="394" dy="515" grid="1" gridSize="10" guides="1" tooltips="1" connect="1" arrows="1" fold="1" page="1" pageScale="1" pageWidth="827" pageHeight="1169" math="0" shadow="0">
      <root>
        <mxCell id="0" />
        <mxCell id="1" parent="0" />
        <mxCell id="Lg3sW6dA_uKnH5KgTc1D-1" value="" style="edgeStyle=orthogonalEdgeStyle;rounded=0;orthogonalLoop=1;jettySize=auto;html=1;" parent="1" edge="1">
          <mxGeometry relative="1" as="geometry">
            <mxPoint x="915" y="-1050" as="targetPoint" />
          </mxGeometry>
        </mxCell>
        <mxCell id="Lg3sW6dA_uKnH5KgTc1D-2" value="ไม่" style="edgeStyle=orthogonalEdgeStyle;rounded=0;orthogonalLoop=1;jettySize=auto;html=1;" parent="1" edge="1">
          <mxGeometry relative="1" as="geometry">
            <mxPoint x="915" y="-960" as="sourcePoint" />
          </mxGeometry>
        </mxCell>
        <mxCell id="Lg3sW6dA_uKnH5KgTc1D-3" value="" style="edgeStyle=orthogonalEdgeStyle;rounded=0;orthogonalLoop=1;jettySize=auto;html=1;" parent="1" edge="1">
          <mxGeometry relative="1" as="geometry">
            <mxPoint x="915" y="-805" as="sourcePoint" />
          </mxGeometry>
        </mxCell>
        <mxCell id="Lg3sW6dA_uKnH5KgTc1D-26" value="เท็จ" style="edgeStyle=orthogonalEdgeStyle;rounded=0;orthogonalLoop=1;jettySize=auto;html=1;" parent="1" edge="1">
          <mxGeometry relative="1" as="geometry">
            <mxPoint x="810.1111111111113" y="240.1111111111113" as="targetPoint" />
          </mxGeometry>
        </mxCell>
        <mxCell id="Lg3sW6dA_uKnH5KgTc1D-27" value="" style="edgeStyle=orthogonalEdgeStyle;rounded=0;orthogonalLoop=1;jettySize=auto;html=1;" parent="1" edge="1">
          <mxGeometry relative="1" as="geometry">
            <mxPoint x="1225" y="450" as="targetPoint" />
          </mxGeometry>
        </mxCell>
        <mxCell id="Lg3sW6dA_uKnH5KgTc1D-119" value="" style="edgeStyle=orthogonalEdgeStyle;rounded=0;orthogonalLoop=1;jettySize=auto;html=1;" parent="1" edge="1">
          <mxGeometry relative="1" as="geometry">
            <mxPoint x="855" y="-1110" as="targetPoint" />
          </mxGeometry>
        </mxCell>
        <mxCell id="Lg3sW6dA_uKnH5KgTc1D-120" value="ไม่" style="edgeStyle=orthogonalEdgeStyle;rounded=0;orthogonalLoop=1;jettySize=auto;html=1;" parent="1" edge="1">
          <mxGeometry relative="1" as="geometry">
            <mxPoint x="855" y="-1020" as="sourcePoint" />
          </mxGeometry>
        </mxCell>
        <mxCell id="Lg3sW6dA_uKnH5KgTc1D-121" value="" style="edgeStyle=orthogonalEdgeStyle;rounded=0;orthogonalLoop=1;jettySize=auto;html=1;" parent="1" edge="1">
          <mxGeometry relative="1" as="geometry">
            <mxPoint x="855" y="-865" as="sourcePoint" />
          </mxGeometry>
        </mxCell>
        <mxCell id="Lg3sW6dA_uKnH5KgTc1D-144" value="เท็จ" style="edgeStyle=orthogonalEdgeStyle;rounded=0;orthogonalLoop=1;jettySize=auto;html=1;" parent="1" edge="1">
          <mxGeometry relative="1" as="geometry">
            <mxPoint x="750.1111111111113" y="180.1111111111113" as="targetPoint" />
          </mxGeometry>
        </mxCell>
        <mxCell id="Lg3sW6dA_uKnH5KgTc1D-145" value="" style="edgeStyle=orthogonalEdgeStyle;rounded=0;orthogonalLoop=1;jettySize=auto;html=1;" parent="1" edge="1">
          <mxGeometry relative="1" as="geometry">
            <mxPoint x="1165" y="390" as="targetPoint" />
          </mxGeometry>
        </mxCell>
        <mxCell id="Lg3sW6dA_uKnH5KgTc1D-237" value="" style="edgeStyle=orthogonalEdgeStyle;rounded=0;orthogonalLoop=1;jettySize=auto;html=1;" parent="1" edge="1">
          <mxGeometry relative="1" as="geometry">
            <mxPoint x="675" y="460" as="targetPoint" />
          </mxGeometry>
        </mxCell>
        <mxCell id="Lg3sW6dA_uKnH5KgTc1D-238" value="ไม่" style="edgeStyle=orthogonalEdgeStyle;rounded=0;orthogonalLoop=1;jettySize=auto;html=1;" parent="1" edge="1">
          <mxGeometry relative="1" as="geometry">
            <mxPoint x="675" y="550" as="sourcePoint" />
          </mxGeometry>
        </mxCell>
        <mxCell id="Lg3sW6dA_uKnH5KgTc1D-239" value="" style="edgeStyle=orthogonalEdgeStyle;rounded=0;orthogonalLoop=1;jettySize=auto;html=1;" parent="1" edge="1">
          <mxGeometry relative="1" as="geometry">
            <mxPoint x="675" y="705" as="sourcePoint" />
          </mxGeometry>
        </mxCell>
        <mxCell id="Lg3sW6dA_uKnH5KgTc1D-240" value="" style="edgeStyle=orthogonalEdgeStyle;rounded=0;orthogonalLoop=1;jettySize=auto;html=1;" parent="1" source="Lg3sW6dA_uKnH5KgTc1D-241" target="Lg3sW6dA_uKnH5KgTc1D-243" edge="1">
          <mxGeometry relative="1" as="geometry" />
        </mxCell>
        <mxCell id="Lg3sW6dA_uKnH5KgTc1D-241" value="เริ่มต้น" style="ellipse;whiteSpace=wrap;html=1;" parent="1" vertex="1">
          <mxGeometry x="903" y="130" width="120" height="80" as="geometry" />
        </mxCell>
        <mxCell id="Lg3sW6dA_uKnH5KgTc1D-242" value="" style="edgeStyle=orthogonalEdgeStyle;rounded=0;orthogonalLoop=1;jettySize=auto;html=1;" parent="1" source="Lg3sW6dA_uKnH5KgTc1D-243" target="Lg3sW6dA_uKnH5KgTc1D-245" edge="1">
          <mxGeometry relative="1" as="geometry" />
        </mxCell>
        <mxCell id="Lg3sW6dA_uKnH5KgTc1D-243" value="เงินที่อยู่ในตู้" style="shape=parallelogram;perimeter=parallelogramPerimeter;whiteSpace=wrap;html=1;fixedSize=1;" parent="1" vertex="1">
          <mxGeometry x="903" y="250" width="120" height="60" as="geometry" />
        </mxCell>
        <mxCell id="Lg3sW6dA_uKnH5KgTc1D-244" value="" style="edgeStyle=orthogonalEdgeStyle;rounded=0;orthogonalLoop=1;jettySize=auto;html=1;" parent="1" source="Lg3sW6dA_uKnH5KgTc1D-245" target="Lg3sW6dA_uKnH5KgTc1D-247" edge="1">
          <mxGeometry relative="1" as="geometry" />
        </mxCell>
        <mxCell id="Lg3sW6dA_uKnH5KgTc1D-245" value="1000บาท 1ใบ" style="whiteSpace=wrap;html=1;" parent="1" vertex="1">
          <mxGeometry x="903" y="350" width="120" height="60" as="geometry" />
        </mxCell>
        <mxCell id="Lg3sW6dA_uKnH5KgTc1D-246" value="" style="edgeStyle=orthogonalEdgeStyle;rounded=0;orthogonalLoop=1;jettySize=auto;html=1;" parent="1" source="Lg3sW6dA_uKnH5KgTc1D-247" target="Lg3sW6dA_uKnH5KgTc1D-249" edge="1">
          <mxGeometry relative="1" as="geometry" />
        </mxCell>
        <mxCell id="Lg3sW6dA_uKnH5KgTc1D-247" value="500บาท 1ใบ" style="whiteSpace=wrap;html=1;" parent="1" vertex="1">
          <mxGeometry x="903" y="440" width="120" height="60" as="geometry" />
        </mxCell>
        <mxCell id="Lg3sW6dA_uKnH5KgTc1D-248" value="" style="edgeStyle=orthogonalEdgeStyle;rounded=0;orthogonalLoop=1;jettySize=auto;html=1;" parent="1" source="Lg3sW6dA_uKnH5KgTc1D-249" target="Lg3sW6dA_uKnH5KgTc1D-251" edge="1">
          <mxGeometry relative="1" as="geometry" />
        </mxCell>
        <mxCell id="Lg3sW6dA_uKnH5KgTc1D-249" value="100บาท 3ใบ" style="whiteSpace=wrap;html=1;" parent="1" vertex="1">
          <mxGeometry x="903" y="540" width="120" height="60" as="geometry" />
        </mxCell>
        <mxCell id="Lg3sW6dA_uKnH5KgTc1D-250" value="" style="edgeStyle=orthogonalEdgeStyle;rounded=0;orthogonalLoop=1;jettySize=auto;html=1;" parent="1" source="Lg3sW6dA_uKnH5KgTc1D-251" target="Lg3sW6dA_uKnH5KgTc1D-253" edge="1">
          <mxGeometry relative="1" as="geometry" />
        </mxCell>
        <mxCell id="Lg3sW6dA_uKnH5KgTc1D-251" value="50บาท 8ใบ" style="whiteSpace=wrap;html=1;" parent="1" vertex="1">
          <mxGeometry x="903" y="644.5" width="120" height="60" as="geometry" />
        </mxCell>
        <mxCell id="Lg3sW6dA_uKnH5KgTc1D-252" value="" style="edgeStyle=orthogonalEdgeStyle;rounded=0;orthogonalLoop=1;jettySize=auto;html=1;" parent="1" source="Lg3sW6dA_uKnH5KgTc1D-253" target="Lg3sW6dA_uKnH5KgTc1D-255" edge="1">
          <mxGeometry relative="1" as="geometry" />
        </mxCell>
        <mxCell id="Lg3sW6dA_uKnH5KgTc1D-253" value="20บาท 15ใบ" style="whiteSpace=wrap;html=1;" parent="1" vertex="1">
          <mxGeometry x="903" y="740" width="120" height="60" as="geometry" />
        </mxCell>
        <mxCell id="Lg3sW6dA_uKnH5KgTc1D-254" value="" style="edgeStyle=orthogonalEdgeStyle;rounded=0;orthogonalLoop=1;jettySize=auto;html=1;" parent="1" source="Lg3sW6dA_uKnH5KgTc1D-255" target="Lg3sW6dA_uKnH5KgTc1D-257" edge="1">
          <mxGeometry relative="1" as="geometry" />
        </mxCell>
        <mxCell id="Lg3sW6dA_uKnH5KgTc1D-255" value="10บาท 200เหรียญ" style="whiteSpace=wrap;html=1;" parent="1" vertex="1">
          <mxGeometry x="903" y="840" width="120" height="60" as="geometry" />
        </mxCell>
        <mxCell id="Lg3sW6dA_uKnH5KgTc1D-256" value="" style="edgeStyle=orthogonalEdgeStyle;rounded=0;orthogonalLoop=1;jettySize=auto;html=1;" parent="1" source="Lg3sW6dA_uKnH5KgTc1D-257" target="Lg3sW6dA_uKnH5KgTc1D-259" edge="1">
          <mxGeometry relative="1" as="geometry" />
        </mxCell>
        <mxCell id="Lg3sW6dA_uKnH5KgTc1D-257" value="5ยาท 500เหรียญ" style="whiteSpace=wrap;html=1;" parent="1" vertex="1">
          <mxGeometry x="903" y="950" width="120" height="60" as="geometry" />
        </mxCell>
        <mxCell id="Lg3sW6dA_uKnH5KgTc1D-258" value="" style="edgeStyle=orthogonalEdgeStyle;rounded=0;orthogonalLoop=1;jettySize=auto;html=1;" parent="1" source="Lg3sW6dA_uKnH5KgTc1D-259" target="Lg3sW6dA_uKnH5KgTc1D-261" edge="1">
          <mxGeometry relative="1" as="geometry" />
        </mxCell>
        <mxCell id="Lg3sW6dA_uKnH5KgTc1D-259" value="1บาท 1000ใบ" style="whiteSpace=wrap;html=1;" parent="1" vertex="1">
          <mxGeometry x="903" y="1050" width="120" height="60" as="geometry" />
        </mxCell>
        <mxCell id="Lg3sW6dA_uKnH5KgTc1D-260" value="" style="edgeStyle=orthogonalEdgeStyle;rounded=0;orthogonalLoop=1;jettySize=auto;html=1;" parent="1" source="Lg3sW6dA_uKnH5KgTc1D-261" edge="1">
          <mxGeometry relative="1" as="geometry">
            <mxPoint x="963" y="1270" as="targetPoint" />
          </mxGeometry>
        </mxCell>
        <mxCell id="Lg3sW6dA_uKnH5KgTc1D-261" value="รวมยอดเงินภายในตู้" style="shape=parallelogram;perimeter=parallelogramPerimeter;whiteSpace=wrap;html=1;fixedSize=1;" parent="1" vertex="1">
          <mxGeometry x="903" y="1140" width="120" height="60" as="geometry" />
        </mxCell>
        <mxCell id="Lg3sW6dA_uKnH5KgTc1D-262" value="เท็จ" style="edgeStyle=orthogonalEdgeStyle;rounded=0;orthogonalLoop=1;jettySize=auto;html=1;" parent="1" edge="1">
          <mxGeometry relative="1" as="geometry">
            <mxPoint x="570.1111111111113" y="1750.1111111111113" as="targetPoint" />
          </mxGeometry>
        </mxCell>
        <mxCell id="Lg3sW6dA_uKnH5KgTc1D-263" value="" style="edgeStyle=orthogonalEdgeStyle;rounded=0;orthogonalLoop=1;jettySize=auto;html=1;" parent="1" edge="1">
          <mxGeometry relative="1" as="geometry">
            <mxPoint x="985" y="1960" as="targetPoint" />
          </mxGeometry>
        </mxCell>
        <mxCell id="Lg3sW6dA_uKnH5KgTc1D-264" value="หมด" style="edgeStyle=orthogonalEdgeStyle;rounded=0;orthogonalLoop=1;jettySize=auto;html=1;entryX=0.5;entryY=0;entryDx=0;entryDy=0;" parent="1" source="Lg3sW6dA_uKnH5KgTc1D-266" target="Lg3sW6dA_uKnH5KgTc1D-267" edge="1">
          <mxGeometry relative="1" as="geometry" />
        </mxCell>
        <mxCell id="Lg3sW6dA_uKnH5KgTc1D-265" value="ไม่หมด" style="edgeStyle=orthogonalEdgeStyle;rounded=0;orthogonalLoop=1;jettySize=auto;html=1;" parent="1" source="Lg3sW6dA_uKnH5KgTc1D-266" edge="1">
          <mxGeometry relative="1" as="geometry">
            <mxPoint x="964.0000000000002" y="1500" as="targetPoint" />
          </mxGeometry>
        </mxCell>
        <mxCell id="Lg3sW6dA_uKnH5KgTc1D-266" value="เช็คสินค้าภายในตู้" style="rhombus;whiteSpace=wrap;html=1;" parent="1" vertex="1">
          <mxGeometry x="924" y="1270" width="80" height="80" as="geometry" />
        </mxCell>
        <mxCell id="Lg3sW6dA_uKnH5KgTc1D-267" value="แจ้งไปยังสำนักงาน" style="shape=parallelogram;perimeter=parallelogramPerimeter;whiteSpace=wrap;html=1;fixedSize=1;" parent="1" vertex="1">
          <mxGeometry x="720" y="1330" width="120" height="60" as="geometry" />
        </mxCell>
        <mxCell id="Lg3sW6dA_uKnH5KgTc1D-268" value="" style="edgeStyle=orthogonalEdgeStyle;rounded=0;orthogonalLoop=1;jettySize=auto;html=1;" parent="1" source="Lg3sW6dA_uKnH5KgTc1D-270" target="Lg3sW6dA_uKnH5KgTc1D-272" edge="1">
          <mxGeometry relative="1" as="geometry">
            <Array as="points">
              <mxPoint x="1160" y="1540" />
            </Array>
          </mxGeometry>
        </mxCell>
        <mxCell id="Lg3sW6dA_uKnH5KgTc1D-269" value="" style="edgeStyle=orthogonalEdgeStyle;rounded=0;orthogonalLoop=1;jettySize=auto;html=1;" parent="1" source="Lg3sW6dA_uKnH5KgTc1D-270" target="Lg3sW6dA_uKnH5KgTc1D-274" edge="1">
          <mxGeometry relative="1" as="geometry">
            <Array as="points">
              <mxPoint x="780" y="1540" />
            </Array>
          </mxGeometry>
        </mxCell>
        <mxCell id="Lg3sW6dA_uKnH5KgTc1D-270" value="ลูกค้าเลือกสินค้า" style="rhombus;whiteSpace=wrap;html=1;" parent="1" vertex="1">
          <mxGeometry x="924" y="1500" width="80" height="80" as="geometry" />
        </mxCell>
        <mxCell id="Lg3sW6dA_uKnH5KgTc1D-271" value="" style="edgeStyle=orthogonalEdgeStyle;rounded=0;orthogonalLoop=1;jettySize=auto;html=1;" parent="1" source="Lg3sW6dA_uKnH5KgTc1D-272" target="Lg3sW6dA_uKnH5KgTc1D-291" edge="1">
          <mxGeometry relative="1" as="geometry" />
        </mxCell>
        <mxCell id="Lg3sW6dA_uKnH5KgTc1D-272" value="สินค้าประเภทน้ำ" style="whiteSpace=wrap;html=1;" parent="1" vertex="1">
          <mxGeometry x="1100" y="1580" width="120" height="60" as="geometry" />
        </mxCell>
        <mxCell id="Lg3sW6dA_uKnH5KgTc1D-273" value="" style="edgeStyle=orthogonalEdgeStyle;rounded=0;orthogonalLoop=1;jettySize=auto;html=1;" parent="1" source="Lg3sW6dA_uKnH5KgTc1D-274" target="Lg3sW6dA_uKnH5KgTc1D-277" edge="1">
          <mxGeometry relative="1" as="geometry" />
        </mxCell>
        <mxCell id="Lg3sW6dA_uKnH5KgTc1D-274" value="สินค้าประเภทของว่าง" style="whiteSpace=wrap;html=1;" parent="1" vertex="1">
          <mxGeometry x="720" y="1580" width="120" height="60" as="geometry" />
        </mxCell>
        <mxCell id="Lg3sW6dA_uKnH5KgTc1D-275" value="จริง" style="edgeStyle=orthogonalEdgeStyle;rounded=0;orthogonalLoop=1;jettySize=auto;html=1;" parent="1" source="Lg3sW6dA_uKnH5KgTc1D-277" target="Lg3sW6dA_uKnH5KgTc1D-279" edge="1">
          <mxGeometry relative="1" as="geometry">
            <Array as="points">
              <mxPoint x="800" y="1700" />
            </Array>
          </mxGeometry>
        </mxCell>
        <mxCell id="Lg3sW6dA_uKnH5KgTc1D-276" value="เท็จ" style="edgeStyle=orthogonalEdgeStyle;rounded=0;orthogonalLoop=1;jettySize=auto;html=1;" parent="1" source="Lg3sW6dA_uKnH5KgTc1D-277" target="Lg3sW6dA_uKnH5KgTc1D-282" edge="1">
          <mxGeometry relative="1" as="geometry" />
        </mxCell>
        <mxCell id="Lg3sW6dA_uKnH5KgTc1D-277" value="เมล็ดทานตะวัน 13 บาท" style="rhombus;whiteSpace=wrap;html=1;" parent="1" vertex="1">
          <mxGeometry x="630" y="1660" width="80" height="80" as="geometry" />
        </mxCell>
        <mxCell id="Lg3sW6dA_uKnH5KgTc1D-278" style="edgeStyle=orthogonalEdgeStyle;rounded=0;orthogonalLoop=1;jettySize=auto;html=1;entryX=0;entryY=0;entryDx=0;entryDy=0;" parent="1" source="Lg3sW6dA_uKnH5KgTc1D-279" target="Lg3sW6dA_uKnH5KgTc1D-309" edge="1">
          <mxGeometry relative="1" as="geometry">
            <Array as="points">
              <mxPoint x="800" y="1820" />
              <mxPoint x="1014" y="1820" />
            </Array>
          </mxGeometry>
        </mxCell>
        <mxCell id="Lg3sW6dA_uKnH5KgTc1D-279" value="เอา" style="whiteSpace=wrap;html=1;" parent="1" vertex="1">
          <mxGeometry x="740" y="1730" width="120" height="60" as="geometry" />
        </mxCell>
        <mxCell id="Lg3sW6dA_uKnH5KgTc1D-280" value="จริง" style="edgeStyle=orthogonalEdgeStyle;rounded=0;orthogonalLoop=1;jettySize=auto;html=1;" parent="1" source="Lg3sW6dA_uKnH5KgTc1D-282" target="Lg3sW6dA_uKnH5KgTc1D-284" edge="1">
          <mxGeometry relative="1" as="geometry">
            <Array as="points">
              <mxPoint x="710" y="1820" />
            </Array>
          </mxGeometry>
        </mxCell>
        <mxCell id="Lg3sW6dA_uKnH5KgTc1D-281" value="เท็จ" style="edgeStyle=orthogonalEdgeStyle;rounded=0;orthogonalLoop=1;jettySize=auto;html=1;" parent="1" source="Lg3sW6dA_uKnH5KgTc1D-282" target="Lg3sW6dA_uKnH5KgTc1D-286" edge="1">
          <mxGeometry relative="1" as="geometry" />
        </mxCell>
        <mxCell id="Lg3sW6dA_uKnH5KgTc1D-282" value="ถั่วแปบ 20บาท" style="rhombus;whiteSpace=wrap;html=1;" parent="1" vertex="1">
          <mxGeometry x="530" y="1780" width="80" height="80" as="geometry" />
        </mxCell>
        <mxCell id="Lg3sW6dA_uKnH5KgTc1D-283" style="edgeStyle=orthogonalEdgeStyle;rounded=0;orthogonalLoop=1;jettySize=auto;html=1;" parent="1" source="Lg3sW6dA_uKnH5KgTc1D-284" edge="1">
          <mxGeometry relative="1" as="geometry">
            <mxPoint x="1020" y="2090" as="targetPoint" />
            <Array as="points">
              <mxPoint x="710" y="1930" />
              <mxPoint x="1020" y="1930" />
            </Array>
          </mxGeometry>
        </mxCell>
        <mxCell id="Lg3sW6dA_uKnH5KgTc1D-284" value="เอา" style="whiteSpace=wrap;html=1;" parent="1" vertex="1">
          <mxGeometry x="650" y="1850" width="120" height="60" as="geometry" />
        </mxCell>
        <mxCell id="Lg3sW6dA_uKnH5KgTc1D-285" value="จริง" style="edgeStyle=orthogonalEdgeStyle;rounded=0;orthogonalLoop=1;jettySize=auto;html=1;" parent="1" source="Lg3sW6dA_uKnH5KgTc1D-286" target="Lg3sW6dA_uKnH5KgTc1D-288" edge="1">
          <mxGeometry relative="1" as="geometry" />
        </mxCell>
        <mxCell id="Lg3sW6dA_uKnH5KgTc1D-286" value="จิ้นส้มหมก" style="rhombus;whiteSpace=wrap;html=1;" parent="1" vertex="1">
          <mxGeometry x="430" y="1874" width="80" height="80" as="geometry" />
        </mxCell>
        <mxCell id="Lg3sW6dA_uKnH5KgTc1D-287" style="edgeStyle=orthogonalEdgeStyle;rounded=0;orthogonalLoop=1;jettySize=auto;html=1;entryX=0;entryY=0;entryDx=0;entryDy=0;" parent="1" source="Lg3sW6dA_uKnH5KgTc1D-288" target="Lg3sW6dA_uKnH5KgTc1D-309" edge="1">
          <mxGeometry relative="1" as="geometry">
            <Array as="points">
              <mxPoint x="600" y="2030" />
              <mxPoint x="1014" y="2030" />
            </Array>
          </mxGeometry>
        </mxCell>
        <mxCell id="Lg3sW6dA_uKnH5KgTc1D-288" value="เอา" style="whiteSpace=wrap;html=1;" parent="1" vertex="1">
          <mxGeometry x="540" y="1960" width="120" height="60" as="geometry" />
        </mxCell>
        <mxCell id="Lg3sW6dA_uKnH5KgTc1D-289" value="จริง" style="edgeStyle=orthogonalEdgeStyle;rounded=0;orthogonalLoop=1;jettySize=auto;html=1;" parent="1" source="Lg3sW6dA_uKnH5KgTc1D-291" target="Lg3sW6dA_uKnH5KgTc1D-293" edge="1">
          <mxGeometry relative="1" as="geometry">
            <Array as="points">
              <mxPoint x="1220" y="1700" />
            </Array>
          </mxGeometry>
        </mxCell>
        <mxCell id="Lg3sW6dA_uKnH5KgTc1D-290" value="เท็จ" style="edgeStyle=orthogonalEdgeStyle;rounded=0;orthogonalLoop=1;jettySize=auto;html=1;" parent="1" source="Lg3sW6dA_uKnH5KgTc1D-291" target="Lg3sW6dA_uKnH5KgTc1D-296" edge="1">
          <mxGeometry relative="1" as="geometry" />
        </mxCell>
        <mxCell id="Lg3sW6dA_uKnH5KgTc1D-291" value="โค้ก 10บาท" style="rhombus;whiteSpace=wrap;html=1;" parent="1" vertex="1">
          <mxGeometry x="1320" y="1660" width="80" height="80" as="geometry" />
        </mxCell>
        <mxCell id="Lg3sW6dA_uKnH5KgTc1D-292" style="edgeStyle=orthogonalEdgeStyle;rounded=0;orthogonalLoop=1;jettySize=auto;html=1;entryX=0.5;entryY=0;entryDx=0;entryDy=0;" parent="1" source="Lg3sW6dA_uKnH5KgTc1D-293" target="Lg3sW6dA_uKnH5KgTc1D-309" edge="1">
          <mxGeometry relative="1" as="geometry">
            <Array as="points">
              <mxPoint x="1220" y="1800" />
              <mxPoint x="1039" y="1800" />
            </Array>
          </mxGeometry>
        </mxCell>
        <mxCell id="Lg3sW6dA_uKnH5KgTc1D-293" value="เอา" style="whiteSpace=wrap;html=1;" parent="1" vertex="1">
          <mxGeometry x="1160" y="1730" width="120" height="60" as="geometry" />
        </mxCell>
        <mxCell id="Lg3sW6dA_uKnH5KgTc1D-294" value="จริง" style="edgeStyle=orthogonalEdgeStyle;rounded=0;orthogonalLoop=1;jettySize=auto;html=1;" parent="1" source="Lg3sW6dA_uKnH5KgTc1D-296" target="Lg3sW6dA_uKnH5KgTc1D-298" edge="1">
          <mxGeometry relative="1" as="geometry" />
        </mxCell>
        <mxCell id="Lg3sW6dA_uKnH5KgTc1D-295" value="เท็จ" style="edgeStyle=orthogonalEdgeStyle;rounded=0;orthogonalLoop=1;jettySize=auto;html=1;" parent="1" source="Lg3sW6dA_uKnH5KgTc1D-296" target="Lg3sW6dA_uKnH5KgTc1D-301" edge="1">
          <mxGeometry relative="1" as="geometry" />
        </mxCell>
        <mxCell id="Lg3sW6dA_uKnH5KgTc1D-296" value="น้ำเขียว 12บาท" style="rhombus;whiteSpace=wrap;html=1;" parent="1" vertex="1">
          <mxGeometry x="1460" y="1750" width="80" height="80" as="geometry" />
        </mxCell>
        <mxCell id="Lg3sW6dA_uKnH5KgTc1D-297" style="edgeStyle=orthogonalEdgeStyle;rounded=0;orthogonalLoop=1;jettySize=auto;html=1;entryX=1;entryY=0;entryDx=0;entryDy=0;" parent="1" source="Lg3sW6dA_uKnH5KgTc1D-298" target="Lg3sW6dA_uKnH5KgTc1D-309" edge="1">
          <mxGeometry relative="1" as="geometry">
            <Array as="points">
              <mxPoint x="1340" y="1930" />
              <mxPoint x="1064" y="1930" />
            </Array>
          </mxGeometry>
        </mxCell>
        <mxCell id="Lg3sW6dA_uKnH5KgTc1D-298" value="เอา" style="whiteSpace=wrap;html=1;" parent="1" vertex="1">
          <mxGeometry x="1280" y="1844" width="120" height="60" as="geometry" />
        </mxCell>
        <mxCell id="Lg3sW6dA_uKnH5KgTc1D-299" value="จริง" style="edgeStyle=orthogonalEdgeStyle;rounded=0;orthogonalLoop=1;jettySize=auto;html=1;" parent="1" source="Lg3sW6dA_uKnH5KgTc1D-301" target="Lg3sW6dA_uKnH5KgTc1D-303" edge="1">
          <mxGeometry relative="1" as="geometry" />
        </mxCell>
        <mxCell id="Lg3sW6dA_uKnH5KgTc1D-300" value="เท็จ" style="edgeStyle=orthogonalEdgeStyle;rounded=0;orthogonalLoop=1;jettySize=auto;html=1;" parent="1" source="Lg3sW6dA_uKnH5KgTc1D-301" target="Lg3sW6dA_uKnH5KgTc1D-305" edge="1">
          <mxGeometry relative="1" as="geometry" />
        </mxCell>
        <mxCell id="Lg3sW6dA_uKnH5KgTc1D-301" value="อเมริกาโน่ 30บาท" style="rhombus;whiteSpace=wrap;html=1;" parent="1" vertex="1">
          <mxGeometry x="1570" y="1850" width="80" height="80" as="geometry" />
        </mxCell>
        <mxCell id="Lg3sW6dA_uKnH5KgTc1D-302" style="edgeStyle=orthogonalEdgeStyle;rounded=0;orthogonalLoop=1;jettySize=auto;html=1;entryX=1;entryY=0.5;entryDx=0;entryDy=0;" parent="1" source="Lg3sW6dA_uKnH5KgTc1D-303" target="Lg3sW6dA_uKnH5KgTc1D-309" edge="1">
          <mxGeometry relative="1" as="geometry">
            <Array as="points">
              <mxPoint x="1480" y="2010" />
              <mxPoint x="1247" y="2010" />
              <mxPoint x="1247" y="2115" />
            </Array>
          </mxGeometry>
        </mxCell>
        <mxCell id="Lg3sW6dA_uKnH5KgTc1D-303" value="เอา" style="whiteSpace=wrap;html=1;" parent="1" vertex="1">
          <mxGeometry x="1420" y="1940" width="120" height="60" as="geometry" />
        </mxCell>
        <mxCell id="Lg3sW6dA_uKnH5KgTc1D-304" value="จริง" style="edgeStyle=orthogonalEdgeStyle;rounded=0;orthogonalLoop=1;jettySize=auto;html=1;" parent="1" source="Lg3sW6dA_uKnH5KgTc1D-305" target="Lg3sW6dA_uKnH5KgTc1D-307" edge="1">
          <mxGeometry relative="1" as="geometry">
            <Array as="points">
              <mxPoint x="1610" y="2010" />
              <mxPoint x="1610" y="2070" />
            </Array>
          </mxGeometry>
        </mxCell>
        <mxCell id="Lg3sW6dA_uKnH5KgTc1D-305" value="ลาเต้ 35บาท" style="rhombus;whiteSpace=wrap;html=1;" parent="1" vertex="1">
          <mxGeometry x="1680" y="1970" width="80" height="80" as="geometry" />
        </mxCell>
        <mxCell id="Lg3sW6dA_uKnH5KgTc1D-306" style="edgeStyle=orthogonalEdgeStyle;rounded=0;orthogonalLoop=1;jettySize=auto;html=1;" parent="1" source="Lg3sW6dA_uKnH5KgTc1D-307" edge="1">
          <mxGeometry relative="1" as="geometry">
            <mxPoint x="1070" y="2100" as="targetPoint" />
            <Array as="points">
              <mxPoint x="1610" y="2120" />
              <mxPoint x="1310" y="2120" />
              <mxPoint x="1310" y="2100" />
            </Array>
          </mxGeometry>
        </mxCell>
        <mxCell id="Lg3sW6dA_uKnH5KgTc1D-307" value="เอา" style="whiteSpace=wrap;html=1;" parent="1" vertex="1">
          <mxGeometry x="1550" y="2050" width="120" height="60" as="geometry" />
        </mxCell>
        <mxCell id="Lg3sW6dA_uKnH5KgTc1D-308" value="" style="edgeStyle=orthogonalEdgeStyle;rounded=0;orthogonalLoop=1;jettySize=auto;html=1;" parent="1" source="Lg3sW6dA_uKnH5KgTc1D-309" target="Lg3sW6dA_uKnH5KgTc1D-311" edge="1">
          <mxGeometry relative="1" as="geometry" />
        </mxCell>
        <mxCell id="Lg3sW6dA_uKnH5KgTc1D-309" value="" style="ellipse;whiteSpace=wrap;html=1;aspect=fixed;" parent="1" vertex="1">
          <mxGeometry x="1004" y="2080" width="70" height="70" as="geometry" />
        </mxCell>
        <mxCell id="Lg3sW6dA_uKnH5KgTc1D-310" value="" style="edgeStyle=orthogonalEdgeStyle;rounded=0;orthogonalLoop=1;jettySize=auto;html=1;" parent="1" source="Lg3sW6dA_uKnH5KgTc1D-311" target="Lg3sW6dA_uKnH5KgTc1D-314" edge="1">
          <mxGeometry relative="1" as="geometry" />
        </mxCell>
        <mxCell id="Lg3sW6dA_uKnH5KgTc1D-311" value="บันทึกรายการสินค้า" style="whiteSpace=wrap;html=1;" parent="1" vertex="1">
          <mxGeometry x="979" y="2200" width="120" height="60" as="geometry" />
        </mxCell>
        <mxCell id="Lg3sW6dA_uKnH5KgTc1D-312" value="ใช่" style="edgeStyle=orthogonalEdgeStyle;rounded=0;orthogonalLoop=1;jettySize=auto;html=1;entryX=1;entryY=0;entryDx=0;entryDy=0;" parent="1" source="Lg3sW6dA_uKnH5KgTc1D-314" target="Lg3sW6dA_uKnH5KgTc1D-270" edge="1">
          <mxGeometry x="-0.8531" relative="1" as="geometry">
            <mxPoint x="1870" y="1460" as="targetPoint" />
            <Array as="points">
              <mxPoint x="1930" y="2340" />
              <mxPoint x="1930" y="1460" />
              <mxPoint x="984" y="1460" />
            </Array>
            <mxPoint as="offset" />
          </mxGeometry>
        </mxCell>
        <mxCell id="Lg3sW6dA_uKnH5KgTc1D-313" value="" style="edgeStyle=orthogonalEdgeStyle;rounded=0;orthogonalLoop=1;jettySize=auto;html=1;" parent="1" source="Lg3sW6dA_uKnH5KgTc1D-314" target="Lg3sW6dA_uKnH5KgTc1D-316" edge="1">
          <mxGeometry relative="1" as="geometry" />
        </mxCell>
        <mxCell id="Lg3sW6dA_uKnH5KgTc1D-314" value="เลือกสินค้าเพิ่ม" style="rhombus;whiteSpace=wrap;html=1;" parent="1" vertex="1">
          <mxGeometry x="999" y="2300" width="80" height="80" as="geometry" />
        </mxCell>
        <mxCell id="Lg3sW6dA_uKnH5KgTc1D-315" value="" style="edgeStyle=orthogonalEdgeStyle;rounded=0;orthogonalLoop=1;jettySize=auto;html=1;" parent="1" source="Lg3sW6dA_uKnH5KgTc1D-316" target="Lg3sW6dA_uKnH5KgTc1D-319" edge="1">
          <mxGeometry relative="1" as="geometry" />
        </mxCell>
        <mxCell id="Lg3sW6dA_uKnH5KgTc1D-316" value="สรุปราคาสินค้า" style="whiteSpace=wrap;html=1;" parent="1" vertex="1">
          <mxGeometry x="979" y="2470" width="120" height="60" as="geometry" />
        </mxCell>
        <mxCell id="Lg3sW6dA_uKnH5KgTc1D-317" value="" style="edgeStyle=orthogonalEdgeStyle;rounded=0;orthogonalLoop=1;jettySize=auto;html=1;" parent="1" source="Lg3sW6dA_uKnH5KgTc1D-319" target="Lg3sW6dA_uKnH5KgTc1D-323" edge="1">
          <mxGeometry relative="1" as="geometry" />
        </mxCell>
        <mxCell id="Lg3sW6dA_uKnH5KgTc1D-318" style="edgeStyle=orthogonalEdgeStyle;rounded=0;orthogonalLoop=1;jettySize=auto;html=1;entryX=0.5;entryY=0;entryDx=0;entryDy=0;" parent="1" source="Lg3sW6dA_uKnH5KgTc1D-319" target="Lg3sW6dA_uKnH5KgTc1D-327" edge="1">
          <mxGeometry relative="1" as="geometry">
            <Array as="points">
              <mxPoint x="1180" y="2620" />
            </Array>
          </mxGeometry>
        </mxCell>
        <mxCell id="Lg3sW6dA_uKnH5KgTc1D-319" value="ตรวจสอบเงินที่ลูกค้าใส่เข้ามา" style="rhombus;whiteSpace=wrap;html=1;" parent="1" vertex="1">
          <mxGeometry x="960" y="2580" width="160" height="80" as="geometry" />
        </mxCell>
        <mxCell id="Lg3sW6dA_uKnH5KgTc1D-320" style="edgeStyle=orthogonalEdgeStyle;rounded=0;orthogonalLoop=1;jettySize=auto;html=1;entryX=1;entryY=0.5;entryDx=0;entryDy=0;" parent="1" source="Lg3sW6dA_uKnH5KgTc1D-321" target="Lg3sW6dA_uKnH5KgTc1D-354" edge="1">
          <mxGeometry relative="1" as="geometry" />
        </mxCell>
        <mxCell id="Lg3sW6dA_uKnH5KgTc1D-321" value="แจ้งว่าเงินไม่พอ" style="shape=parallelogram;perimeter=parallelogramPerimeter;whiteSpace=wrap;html=1;fixedSize=1;" parent="1" vertex="1">
          <mxGeometry x="1120" y="2810" width="120" height="60" as="geometry" />
        </mxCell>
        <mxCell id="Lg3sW6dA_uKnH5KgTc1D-322" style="edgeStyle=orthogonalEdgeStyle;rounded=0;orthogonalLoop=1;jettySize=auto;html=1;" parent="1" source="Lg3sW6dA_uKnH5KgTc1D-323" target="Lg3sW6dA_uKnH5KgTc1D-325" edge="1">
          <mxGeometry relative="1" as="geometry">
            <Array as="points">
              <mxPoint x="860" y="2820" />
              <mxPoint x="860" y="2820" />
            </Array>
          </mxGeometry>
        </mxCell>
        <mxCell id="Lg3sW6dA_uKnH5KgTc1D-323" value="&lt;table&gt;&lt;tbody&gt;&lt;tr&gt;&lt;td data-col-size=&quot;sm&quot; data-end=&quot;1096&quot; data-start=&quot;1091&quot;&gt;&lt;/td&gt;&lt;/tr&gt;&lt;/tbody&gt;&lt;/table&gt;&lt;table&gt;&lt;tbody&gt;&lt;tr&gt;&lt;td data-col-size=&quot;md&quot; data-end=&quot;1118&quot; data-start=&quot;1096&quot;&gt;จ่ายสินค้าให้ลูกค้า&lt;/td&gt;&lt;/tr&gt;&lt;/tbody&gt;&lt;/table&gt;" style="whiteSpace=wrap;html=1;" parent="1" vertex="1">
          <mxGeometry x="800" y="2690" width="120" height="60" as="geometry" />
        </mxCell>
        <mxCell id="Lg3sW6dA_uKnH5KgTc1D-324" value="" style="edgeStyle=orthogonalEdgeStyle;rounded=0;orthogonalLoop=1;jettySize=auto;html=1;" parent="1" source="Lg3sW6dA_uKnH5KgTc1D-325" edge="1">
          <mxGeometry relative="1" as="geometry">
            <mxPoint x="835" y="2950" as="targetPoint" />
          </mxGeometry>
        </mxCell>
        <mxCell id="Lg3sW6dA_uKnH5KgTc1D-325" value="แสดงยอดเงินคงเหลือ + เหรียญ/ธนบัตรที่เหลือ" style="shape=parallelogram;perimeter=parallelogramPerimeter;whiteSpace=wrap;html=1;fixedSize=1;" parent="1" vertex="1">
          <mxGeometry x="700" y="2830" width="270" height="60" as="geometry" />
        </mxCell>
        <mxCell id="Lg3sW6dA_uKnH5KgTc1D-326" style="edgeStyle=orthogonalEdgeStyle;rounded=0;orthogonalLoop=1;jettySize=auto;html=1;entryX=0.5;entryY=0;entryDx=0;entryDy=0;" parent="1" source="Lg3sW6dA_uKnH5KgTc1D-327" target="Lg3sW6dA_uKnH5KgTc1D-321" edge="1">
          <mxGeometry relative="1" as="geometry" />
        </mxCell>
        <mxCell id="Lg3sW6dA_uKnH5KgTc1D-327" value="คืนเงินทั้งหมด" style="rounded=0;whiteSpace=wrap;html=1;" parent="1" vertex="1">
          <mxGeometry x="1120" y="2690" width="120" height="60" as="geometry" />
        </mxCell>
        <mxCell id="Lg3sW6dA_uKnH5KgTc1D-328" value="" style="edgeStyle=orthogonalEdgeStyle;rounded=0;orthogonalLoop=1;jettySize=auto;html=1;" parent="1" source="Lg3sW6dA_uKnH5KgTc1D-329" target="Lg3sW6dA_uKnH5KgTc1D-345" edge="1">
          <mxGeometry relative="1" as="geometry" />
        </mxCell>
        <mxCell id="Lg3sW6dA_uKnH5KgTc1D-329" value="คำนวณเงินทอน: L_money = C_money - P_item" style="rounded=0;whiteSpace=wrap;html=1;" parent="1" vertex="1">
          <mxGeometry x="755" y="3050" width="160" height="40" as="geometry" />
        </mxCell>
        <mxCell id="Lg3sW6dA_uKnH5KgTc1D-330" value="" style="edgeStyle=orthogonalEdgeStyle;rounded=0;orthogonalLoop=1;jettySize=auto;html=1;" parent="1" source="Lg3sW6dA_uKnH5KgTc1D-331" target="Lg3sW6dA_uKnH5KgTc1D-333" edge="1">
          <mxGeometry relative="1" as="geometry" />
        </mxCell>
        <mxCell id="Lg3sW6dA_uKnH5KgTc1D-331" value="B1000 = L_money / 1000&lt;div&gt;L_money = L_money % 1000&lt;/div&gt;" style="whiteSpace=wrap;html=1;" parent="1" vertex="1">
          <mxGeometry x="734" y="3220" width="200" height="40" as="geometry" />
        </mxCell>
        <mxCell id="Lg3sW6dA_uKnH5KgTc1D-332" value="" style="edgeStyle=orthogonalEdgeStyle;rounded=0;orthogonalLoop=1;jettySize=auto;html=1;" parent="1" source="Lg3sW6dA_uKnH5KgTc1D-333" target="Lg3sW6dA_uKnH5KgTc1D-335" edge="1">
          <mxGeometry relative="1" as="geometry" />
        </mxCell>
        <mxCell id="Lg3sW6dA_uKnH5KgTc1D-333" value="B500 = L_money / 500&lt;div&gt;L_money = L_money % 500&lt;/div&gt;" style="whiteSpace=wrap;html=1;" parent="1" vertex="1">
          <mxGeometry x="735" y="3300" width="200" height="40" as="geometry" />
        </mxCell>
        <mxCell id="Lg3sW6dA_uKnH5KgTc1D-334" value="" style="edgeStyle=orthogonalEdgeStyle;rounded=0;orthogonalLoop=1;jettySize=auto;html=1;" parent="1" source="Lg3sW6dA_uKnH5KgTc1D-335" target="Lg3sW6dA_uKnH5KgTc1D-337" edge="1">
          <mxGeometry relative="1" as="geometry" />
        </mxCell>
        <mxCell id="Lg3sW6dA_uKnH5KgTc1D-335" value="B100 = L_money / 100&lt;div&gt;L_money = L_money % 100&lt;/div&gt;" style="whiteSpace=wrap;html=1;" parent="1" vertex="1">
          <mxGeometry x="735" y="3390" width="200" height="40" as="geometry" />
        </mxCell>
        <mxCell id="Lg3sW6dA_uKnH5KgTc1D-336" value="" style="edgeStyle=orthogonalEdgeStyle;rounded=0;orthogonalLoop=1;jettySize=auto;html=1;" parent="1" source="Lg3sW6dA_uKnH5KgTc1D-337" target="Lg3sW6dA_uKnH5KgTc1D-339" edge="1">
          <mxGeometry relative="1" as="geometry" />
        </mxCell>
        <mxCell id="Lg3sW6dA_uKnH5KgTc1D-337" value="B50 = L_money / 50&lt;div&gt;L_money = L_money % 50&lt;/div&gt;" style="whiteSpace=wrap;html=1;" parent="1" vertex="1">
          <mxGeometry x="734" y="3470" width="200" height="40" as="geometry" />
        </mxCell>
        <mxCell id="Lg3sW6dA_uKnH5KgTc1D-338" value="" style="edgeStyle=orthogonalEdgeStyle;rounded=0;orthogonalLoop=1;jettySize=auto;html=1;" parent="1" source="Lg3sW6dA_uKnH5KgTc1D-339" target="Lg3sW6dA_uKnH5KgTc1D-341" edge="1">
          <mxGeometry relative="1" as="geometry" />
        </mxCell>
        <mxCell id="Lg3sW6dA_uKnH5KgTc1D-339" value="B20 = L_money / 20&lt;div&gt;L_money = L_money % 20&lt;/div&gt;" style="whiteSpace=wrap;html=1;" parent="1" vertex="1">
          <mxGeometry x="735" y="3540" width="200" height="40" as="geometry" />
        </mxCell>
        <mxCell id="Lg3sW6dA_uKnH5KgTc1D-340" value="" style="edgeStyle=orthogonalEdgeStyle;rounded=0;orthogonalLoop=1;jettySize=auto;html=1;" parent="1" source="Lg3sW6dA_uKnH5KgTc1D-341" target="Lg3sW6dA_uKnH5KgTc1D-343" edge="1">
          <mxGeometry relative="1" as="geometry" />
        </mxCell>
        <mxCell id="Lg3sW6dA_uKnH5KgTc1D-341" value="C10 = L_money / 10&lt;div&gt;L_money = L_money % 10&lt;/div&gt;" style="whiteSpace=wrap;html=1;" parent="1" vertex="1">
          <mxGeometry x="735" y="3627" width="200" height="40" as="geometry" />
        </mxCell>
        <mxCell id="Lg3sW6dA_uKnH5KgTc1D-342" value="" style="edgeStyle=orthogonalEdgeStyle;rounded=0;orthogonalLoop=1;jettySize=auto;html=1;" parent="1" source="Lg3sW6dA_uKnH5KgTc1D-343" target="Lg3sW6dA_uKnH5KgTc1D-349" edge="1">
          <mxGeometry relative="1" as="geometry" />
        </mxCell>
        <mxCell id="Lg3sW6dA_uKnH5KgTc1D-343" value="C5 = L_money / 5&lt;div&gt;C1 = L_money % 5&lt;/div&gt;" style="whiteSpace=wrap;html=1;" parent="1" vertex="1">
          <mxGeometry x="735" y="3730" width="200" height="40" as="geometry" />
        </mxCell>
        <mxCell id="Lg3sW6dA_uKnH5KgTc1D-344" value="" style="edgeStyle=orthogonalEdgeStyle;rounded=0;orthogonalLoop=1;jettySize=auto;html=1;" parent="1" source="Lg3sW6dA_uKnH5KgTc1D-345" target="Lg3sW6dA_uKnH5KgTc1D-331" edge="1">
          <mxGeometry relative="1" as="geometry" />
        </mxCell>
        <mxCell id="Lg3sW6dA_uKnH5KgTc1D-345" value="&lt;br&gt;change == 0&lt;div&gt;&lt;br&gt;&lt;/div&gt;" style="rounded=0;whiteSpace=wrap;html=1;align=center;" parent="1" vertex="1">
          <mxGeometry x="754" y="3130" width="160" height="40" as="geometry" />
        </mxCell>
        <mxCell id="Lg3sW6dA_uKnH5KgTc1D-346" value="" style="edgeStyle=orthogonalEdgeStyle;rounded=0;orthogonalLoop=1;jettySize=auto;html=1;" parent="1" source="Lg3sW6dA_uKnH5KgTc1D-347" target="Lg3sW6dA_uKnH5KgTc1D-329" edge="1">
          <mxGeometry relative="1" as="geometry" />
        </mxCell>
        <mxCell id="Lg3sW6dA_uKnH5KgTc1D-347" value="&lt;font&gt;&lt;br&gt;จำนวนธนบัตรต้อง&lt;/font&gt;&lt;div&gt;&lt;font&gt;ใช้ในการทอนเงิน&lt;/font&gt;&lt;/div&gt;&lt;div&gt;&lt;font&gt;= use&lt;br&gt;&lt;/font&gt;&lt;br&gt;&lt;/div&gt;" style="shape=parallelogram;perimeter=parallelogramPerimeter;whiteSpace=wrap;html=1;fixedSize=1;" parent="1" vertex="1">
          <mxGeometry x="775" y="2950" width="120" height="60" as="geometry" />
        </mxCell>
        <mxCell id="Lg3sW6dA_uKnH5KgTc1D-348" value="" style="edgeStyle=orthogonalEdgeStyle;rounded=0;orthogonalLoop=1;jettySize=auto;html=1;" parent="1" source="Lg3sW6dA_uKnH5KgTc1D-349" target="Lg3sW6dA_uKnH5KgTc1D-351" edge="1">
          <mxGeometry relative="1" as="geometry" />
        </mxCell>
        <mxCell id="Lg3sW6dA_uKnH5KgTc1D-349" value="วนลูปมูลค่าเงินทอน (1000, 500, 100, 50, 20, 10, 5, 1)" style="rounded=0;whiteSpace=wrap;html=1;" parent="1" vertex="1">
          <mxGeometry x="756" y="3820" width="160" height="40" as="geometry" />
        </mxCell>
        <mxCell id="Lg3sW6dA_uKnH5KgTc1D-350" value="" style="edgeStyle=orthogonalEdgeStyle;rounded=0;orthogonalLoop=1;jettySize=auto;html=1;" parent="1" source="Lg3sW6dA_uKnH5KgTc1D-351" target="Lg3sW6dA_uKnH5KgTc1D-353" edge="1">
          <mxGeometry relative="1" as="geometry" />
        </mxCell>
        <mxCell id="Lg3sW6dA_uKnH5KgTc1D-351" value="คำนวณจำนวน: use = L_money ÷ มูลค่า" style="rounded=0;whiteSpace=wrap;html=1;" parent="1" vertex="1">
          <mxGeometry x="756" y="3910" width="160" height="40" as="geometry" />
        </mxCell>
        <mxCell id="Lg3sW6dA_uKnH5KgTc1D-352" value="" style="edgeStyle=orthogonalEdgeStyle;rounded=0;orthogonalLoop=1;jettySize=auto;html=1;entryX=0;entryY=0.641;entryDx=0;entryDy=0;entryPerimeter=0;" parent="1" source="Lg3sW6dA_uKnH5KgTc1D-353" target="Lg3sW6dA_uKnH5KgTc1D-354" edge="1">
          <mxGeometry relative="1" as="geometry">
            <mxPoint x="834" y="4070" as="targetPoint" />
            <Array as="points">
              <mxPoint x="835" y="4060" />
              <mxPoint x="840" y="4060" />
              <mxPoint x="840" y="4140" />
              <mxPoint x="1010" y="4140" />
            </Array>
          </mxGeometry>
        </mxCell>
        <mxCell id="Lg3sW6dA_uKnH5KgTc1D-353" value="แสดงผลเงินทอน&amp;nbsp;" style="rounded=0;whiteSpace=wrap;html=1;" parent="1" vertex="1">
          <mxGeometry x="745" y="3990" width="180" height="40" as="geometry" />
        </mxCell>
        <mxCell id="Lg3sW6dA_uKnH5KgTc1D-354" value="จบ" style="ellipse;whiteSpace=wrap;html=1;" parent="1" vertex="1">
          <mxGeometry x="1010" y="4090" width="120" height="80" as="geometry" />
        </mxCell>
      </root>
    </mxGraphModel>
  </diagram>
</mxfile>
